<svg width="135" height="38" fill="none" xmlns="http://www.w3.org/2000/svg"><path fill-rule="evenodd" clip-rule="evenodd" d="M134.66 8.59v-3.3h-1.22v3.3h1.22ZM50.54 33.93V26.1h.07a5.36 5.36 0 0 0 2.13 1.84c.86.42 1.8.63 2.83.63 1.21 0 2.28-.24 3.18-.7.9-.48 1.67-1.1 2.27-1.9.61-.78 1.07-1.69 1.36-2.71a12.58 12.58 0 0 0 0-6.58 8.24 8.24 0 0 0-1.37-2.83 6.94 6.94 0 0 0-2.34-1.95 7.17 7.17 0 0 0-3.36-.74c-1.02 0-1.96.2-2.81.6a5 5 0 0 0-2.12 1.96h-.06V11.6H46v22.33h4.54Zm3.81-8.76c-.72 0-1.34-.15-1.85-.45a3.6 3.6 0 0 1-1.24-1.17 5.04 5.04 0 0 1-.67-1.68 10.1 10.1 0 0 1-.02-3.94c.13-.64.35-1.2.66-1.7.31-.48.72-.88 1.22-1.2a3.5 3.5 0 0 1 1.87-.46 3.44 3.44 0 0 1 3.07 1.68c.32.5.55 1.08.69 1.72a9.19 9.19 0 0 1 .02 3.9c-.13.64-.35 1.2-.66 1.68-.3.48-.71.87-1.22 1.17-.5.3-1.12.45-1.87.45Zm18.9 2.94c-.99.3-2 .45-3.02.45-.79 0-1.52-.1-2.2-.29-.69-.2-1.28-.5-1.8-.9-.5-.4-.9-.91-1.2-1.53a5.2 5.2 0 0 1-.43-2.21c0-.94.17-1.71.5-2.32.33-.6.76-1.1 1.28-1.46a5.73 5.73 0 0 1 1.79-.81c.67-.18 1.35-.33 2.03-.43.68-.11 1.36-.2 2.02-.26.66-.06 1.25-.16 1.76-.29.51-.13.92-.31 1.21-.56.3-.24.44-.6.42-1.07 0-.49-.08-.88-.24-1.17a1.76 1.76 0 0 0-.64-.67 2.52 2.52 0 0 0-.93-.32 7.6 7.6 0 0 0-1.13-.08c-.9 0-1.6.2-2.12.58-.5.38-.8 1.02-.9 1.92h-4.54c.07-1.07.33-1.96.8-2.66a5.45 5.45 0 0 1 1.8-1.7 7.8 7.8 0 0 1 2.44-.9c.91-.19 1.82-.28 2.74-.28.83 0 1.67.06 2.53.18.85.11 1.63.34 2.33.68.7.35 1.28.82 1.73 1.43.45.6.67 1.41.67 2.41v8.61c0 .75.05 1.46.13 2.15.09.68.24 1.2.45 1.53h-4.6a6.54 6.54 0 0 1-.33-1.6 5.92 5.92 0 0 1-2.56 1.57Zm-1.32-2.56c-.36 0-.71-.03-1.06-.1a2.57 2.57 0 0 1-.9-.33 1.72 1.72 0 0 1-.6-.66 2.14 2.14 0 0 1-.22-1.02c0-.43.07-.78.22-1.06s.35-.5.6-.69c.24-.18.53-.32.86-.43.33-.1.66-.19 1-.25.37-.07.73-.12 1.1-.16l1.03-.16c.33-.07.64-.15.93-.24.29-.1.53-.23.72-.4v1.7c0 .25-.03.59-.08 1.02-.05.42-.2.84-.43 1.26A3 3 0 0 1 74 25.1c-.5.3-1.18.45-2.08.45Zm17.61 7.52c-.88.58-2.1.86-3.65.86a20 20 0 0 1-1.39-.04l-1.4-.12v-3.74l1.32.13c.45.04.9.05 1.34.03.6-.06 1.04-.3 1.33-.7.29-.4.43-.86.43-1.35 0-.36-.06-.7-.19-1.02L81.54 11.6h4.83l3.75 11.33h.06L93.8 11.6h4.7l-6.91 18.59a5.6 5.6 0 0 1-2.05 2.88Zm15.05-4.54c.79 0 1.51-.1 2.18-.3a6.6 6.6 0 0 0 1.77-.8c.52-.33.97-.72 1.33-1.16.36-.44.64-.9.83-1.4h.07v.87c0 .34.02.66.08.95.05.28.15.53.3.75.15.21.37.38.66.51a3.84 3.84 0 0 0 2.16.06V27c-.39.06-.69.1-.9.1-.28 0-.5-.06-.64-.18a.96.96 0 0 1-.32-.46c-.06-.2-.1-.4-.11-.64l-.02-.7v-9.58c0-1.25-.45-2.27-1.36-3.05-.9-.78-2.35-1.17-4.33-1.17-1.99 0-3.52.45-4.6 1.36-1.07.9-1.66 2.27-1.74 4.08h1.22c.08-1.47.58-2.57 1.48-3.3.91-.72 2.1-1.08 3.57-1.08.83 0 1.54.08 2.11.25.58.17 1.05.4 1.41.7a2.8 2.8 0 0 1 1.06 2.28c0 .57-.03 1.05-.1 1.44-.06.38-.22.7-.48.94-.25.25-.63.44-1.13.58-.5.14-1.2.24-2.07.3l-1.89.16c-.66.07-1.35.17-2.06.32s-1.37.4-1.95.75c-.59.36-1.07.84-1.46 1.44-.38.61-.57 1.4-.57 2.36 0 1.57.48 2.74 1.44 3.5.96.76 2.31 1.14 4.06 1.14Zm-3.14-1.94a5.1 5.1 0 0 0 3.17.88c1.39 0 2.49-.25 3.3-.75a5.84 5.84 0 0 0 1.85-1.73c.43-.65.7-1.28.82-1.89.12-.6.18-1.02.18-1.23V18.8c-.3.36-.76.6-1.36.73-.61.13-1.29.23-2.04.3l-2.04.18c-.6.07-1.2.16-1.8.28a5.2 5.2 0 0 0-1.61.59 3.3 3.3 0 0 0-1.17 1.13 3.5 3.5 0 0 0-.45 1.88c0 1.21.39 2.11 1.15 2.7Zm15.66 7.44v-9.31h.06a5.24 5.24 0 0 0 2.34 2.91c1.07.6 2.28.9 3.65.9 1.26 0 2.35-.22 3.28-.64a6.25 6.25 0 0 0 2.3-1.78 7.58 7.58 0 0 0 1.36-2.7c.3-1.05.45-2.2.45-3.46 0-1.15-.15-2.25-.45-3.3a8.1 8.1 0 0 0-1.36-2.75 6.65 6.65 0 0 0-5.58-2.59 6.38 6.38 0 0 0-4.16 1.46 6.31 6.31 0 0 0-1.82 2.7h-.07v-3.78h-1.22v22.34h1.22Zm3.15-7.18a6.1 6.1 0 0 0 2.9.62 5.48 5.48 0 0 0 4.69-2.24c.5-.68.87-1.48 1.12-2.38a11.02 11.02 0 0 0 .01-5.67c-.23-.9-.6-1.72-1.08-2.43a5.59 5.59 0 0 0-1.9-1.73 5.7 5.7 0 0 0-2.84-.65c-1.09 0-2.02.21-2.78.64-.77.42-1.4.99-1.88 1.7-.48.7-.82 1.5-1.04 2.4a13.64 13.64 0 0 0-.03 5.66c.2.92.52 1.72.98 2.41.46.7 1.08 1.25 1.85 1.67Zm13.18-15.16h1.22v16.45h-1.22V11.7Z" fill="#FBFCFE"/><circle cx="19.14" cy="5" r="3" transform="rotate(45 19.14 5)" fill="#FBFCFE"/><circle cx="26.21" cy="12.07" r="3" transform="rotate(45 26.21 12.07)" fill="#FBFCFE"/><circle cx="33.28" cy="19.14" r="3" transform="rotate(45 33.28 19.14)" fill="#FBFCFE"/><circle cx="12.07" cy="12.07" r="3" transform="rotate(45 12.07 12.07)" fill="#FBFCFE"/><circle opacity=".5" cx="19.14" cy="19.14" r="3" transform="rotate(45 19.14 19.14)" fill="#FBFCFE"/><circle opacity=".5" cx="26.21" cy="26.21" r="3" transform="rotate(45 26.21 26.21)" fill="#FBFCFE"/><circle cx="5" cy="19.14" r="3" transform="rotate(45 5 19.14)" fill="#FBFCFE"/><circle opacity=".5" cx="12.07" cy="26.21" r="3" transform="rotate(45 12.07 26.21)" fill="#FBFCFE"/><circle opacity=".25" cx="19.14" cy="33.28" r="3" transform="rotate(45 19.14 33.28)" fill="#FBFCFE"/></svg>